<svg width="1117" height="305" viewBox="0 0 1117 305" fill="none" xmlns="http://www.w3.org/2000/svg">
<path d="M53.4375 240.812C47.25 240.812 41.7656 239.312 36.9844 236.312C32.2031 239.312 27.75 240.812 23.625 240.812C19.5938 240.812 16.2656 240.438 13.6406 239.688C11.0156 239.031 8.71875 238.094 6.75 236.875C2.71875 234.438 0.703125 231.391 0.703125 227.734C0.703125 225.859 1.21875 224.219 2.25 222.812C4.3125 224.406 6.9375 225.203 10.125 225.203C18.4688 225.203 24.2344 221.641 27.4219 214.516V145.75C27.4219 141.438 26.5312 138.25 24.75 136.188C21.9375 132.719 17.1094 129.297 10.2656 125.922C16.6406 123.016 20.7656 120.438 22.6406 118.188C25.8281 114.531 27.4219 110.406 27.4219 105.812V46.4688C24.2344 39.25 18.4688 35.6406 10.125 35.6406C6.9375 35.6406 4.3125 36.4375 2.25 38.0312C1.21875 36.625 0.703125 35.0313 0.703125 33.25C0.703125 31.375 1.21875 29.6406 2.25 28.0469C3.375 26.4531 4.875 25.0938 6.75 23.9688C11.0625 21.3437 15.9844 20.0312 21.5156 20.0312C27.1406 20.0312 32.2969 21.5781 36.9844 24.6719C41.8594 21.5781 47.0156 20.0312 52.4531 20.0312C57.9844 20.0312 63.0938 21.2031 67.7812 23.5469C78.8438 20.2656 89.1094 18.625 98.5781 18.625C108.047 18.625 116.438 19.1406 123.75 20.1719C131.062 21.2031 138.047 23.0312 144.703 25.6562C151.359 28.1875 157.594 31.6094 163.406 35.9219C169.312 40.2344 174.562 45.625 179.156 52.0938C188.906 65.6875 195.141 83.6875 197.859 106.094C198.422 111.625 199.594 115.516 201.375 117.766C204.375 121.422 208.453 124.141 213.609 125.922C208.172 127.984 204.609 130.094 202.922 132.25C200.109 135.812 198.422 140.312 197.859 145.75C194.766 176.875 184.312 200.875 166.5 217.75C149.344 234.062 127.078 242.219 99.7031 242.219C88.7344 242.219 78.8906 240.531 70.1719 237.156C65.9531 239.594 60.375 240.812 53.4375 240.812ZM79.1719 215.922C83.6719 220.984 89.625 223.516 97.0312 223.516C104.531 223.516 111 222.062 116.438 219.156C121.969 216.156 126.609 211.562 130.359 205.375C137.953 192.719 141.75 172.844 141.75 145.75C141.75 139.844 140.812 135.812 138.938 133.656C136.406 130.656 132.234 128.078 126.422 125.922C132.141 123.953 135.844 121.984 137.531 120.016C140.344 116.641 141.75 112.375 141.75 107.219C141.75 101.969 141.375 96.7656 140.625 91.6094C139.875 86.4531 138.656 81.3438 136.969 76.2812C135.375 71.2188 133.312 66.3906 130.781 61.7969C128.344 57.1094 125.391 52.9844 121.922 49.4219C114.328 41.6406 105.375 37.75 95.0625 37.75C91.875 37.75 88.7812 37.8438 85.7812 38.0312C82.7812 38.125 80.5781 39.0156 79.1719 40.7031V215.922ZM149.062 62.2188C156.094 81.8125 159.609 98.5938 159.609 112.562C159.609 117.344 159.188 120.156 158.344 121C157.594 121.844 156.75 122.594 155.812 123.25C154.125 124.375 152.297 125.266 150.328 125.922C155.953 128.453 158.906 130.891 159.188 133.234C159.375 134.266 159.469 135.297 159.469 136.328V139.844C159.469 152.5 158.156 164.781 155.531 176.688C152.906 188.5 150.938 196.516 149.625 200.734C153.844 199.516 156.891 196.75 158.766 192.438C160.734 188.031 162.375 183.344 163.688 178.375C165.094 173.312 166.219 167.969 167.062 162.344C168.938 150.812 169.875 138.766 169.875 126.203C169.875 103.703 166.547 85.5625 159.891 71.7812C156.984 66.3437 153.375 63.1563 149.062 62.2188ZM40.9219 200.734C45.6094 198.953 48.1875 192.812 48.6562 182.312C49.2188 171.812 49.5 157.281 49.5 138.719C49.5 120.156 49.4531 107.828 49.3594 101.734C49.3594 95.5469 49.3125 90.5781 49.2188 86.8281C48.9375 75.7656 47.8594 69.1094 45.9844 66.8594C44.2031 64.5156 42.5156 62.9687 40.9219 62.2188C40.9219 94.8438 40.3594 113.406 39.2344 117.906C37.9219 121.656 34.7344 124.328 29.6719 125.922C35.2969 127.891 38.4844 130.281 39.2344 133.094C40.3594 137.594 40.9219 154.047 40.9219 182.453V200.734ZM338.484 51.9531C333.703 51.9531 329.062 50.6875 324.562 48.1562C320.156 45.625 316.781 42.25 314.438 38.0312C311.906 33.7187 308.531 30.4375 304.312 28.1875C303 27.5312 301.5 26.8281 299.812 26.0781L304.594 23.125C309.094 20.3125 312.422 16.8906 314.578 12.8594C316.734 8.82812 319.969 5.6875 324.281 3.4375C328.688 1.09375 333.422 -0.078125 338.484 -0.078125C348.984 -0.078125 356.578 4.32812 361.266 13.1406C364.453 18.9531 369.375 23.2656 376.031 26.0781C374.625 26.9219 373.219 27.6719 371.812 28.3281C370.5 28.9844 369.234 29.7344 368.016 30.5781C365.297 32.4531 362.859 35.2188 360.703 38.875C358.641 42.5312 355.594 45.625 351.562 48.1562C347.625 50.6875 343.266 51.9531 338.484 51.9531ZM331.031 34.7969C330.469 33.7656 330 32.5937 329.625 31.2812C329.344 29.875 329.203 27.4375 329.203 23.9688C329.203 20.5 330.984 16.0938 334.547 10.75C331.078 10.75 328.641 11.4063 327.234 12.7188C325.828 13.9375 324.75 15.0156 324 15.9531C323.344 16.7969 322.734 17.6875 322.172 18.625C321.703 19.4688 321.094 20.4063 320.344 21.4375C318.562 23.9688 317.109 25.5156 315.984 26.0781C317.484 26.9219 318.844 28.2813 320.062 30.1562C321.375 31.9375 322.875 33.8125 324.562 35.7812C327.094 38.875 330.422 40.4219 334.547 40.4219C333.984 39.3906 333.375 38.4531 332.719 37.6094C332.156 36.6719 331.594 35.7344 331.031 34.7969ZM324.422 236.312C320.109 239.312 315.188 240.812 309.656 240.812C304.219 240.812 300.141 239.594 297.422 237.156C294.797 234.719 293.484 232.375 293.484 230.125C293.484 227.031 294.141 224.594 295.453 222.812C297.516 224.406 300.562 225.203 304.594 225.203C308.625 225.203 312.094 222.578 315 217.328V172.469C315 168.344 314.156 165.344 312.469 163.469C309.75 160.656 304.875 157.516 297.844 154.047C304.406 151.047 308.578 148.656 310.359 146.875C313.453 143.781 315 139.984 315 135.484V114.953C315 106.984 312.281 102.672 306.844 102.016C305.25 101.828 303.234 101.734 300.797 101.734C298.359 101.734 296.109 102.531 294.047 104.125C292.734 102.344 292.078 100.516 292.078 98.6406C292.078 96.6719 292.547 94.5156 293.484 92.1719C294.516 89.7344 296.062 87.4375 298.125 85.2812C303 80.2188 308.625 77.6875 315 77.6875C321.375 77.6875 327.141 78.8125 332.297 81.0625C336.891 75.0625 342.141 72.0625 348.047 72.0625C357.703 72.0625 362.531 77.125 362.531 87.25V135.484C362.531 139.984 363.516 143.219 365.484 145.188C368.391 148.094 373.125 151.047 379.688 154.047C372.656 157.516 368.25 160.141 366.469 161.922C363.844 164.828 362.531 168.344 362.531 172.469V217.75C365.625 222.719 369.141 225.203 373.078 225.203C377.016 225.203 380.016 224.406 382.078 222.812C383.391 224.594 384.047 226.844 384.047 229.562C384.047 232.188 382.688 234.719 379.969 237.156C377.344 239.594 373.359 240.812 368.016 240.812C362.672 240.812 357.703 239.312 353.109 236.312C349.266 239.312 344.625 240.812 339.188 240.812C333.75 240.812 328.828 239.312 324.422 236.312ZM336.516 169.656C336.609 166.469 336.656 163.797 336.656 161.641C336.75 159.484 336.797 157.75 336.797 156.438V152.641C336.797 151.234 336.75 149.406 336.656 147.156C336.656 144.906 336.609 142.422 336.516 139.703C336.516 136.984 336.469 134.312 336.375 131.688C336 125.219 335.531 120.766 334.969 118.328C333.844 112.891 331.688 109.141 328.5 107.078V116.219C328.5 132.062 328.125 141.391 327.375 144.203C326.719 146.922 325.594 148.984 324 150.391C322.5 151.703 320.25 152.875 317.25 153.906C322.875 155.875 326.062 158.266 326.812 161.078C327.938 165.578 328.5 175.75 328.5 191.594V200.734C332.812 197.922 335.25 192.156 335.812 183.438C336.281 177.438 336.516 172.844 336.516 169.656ZM569.25 224.641C560.719 235.891 547.922 241.516 530.859 241.516C510.047 241.516 494.438 235.281 484.031 222.812C479.531 217.469 476.438 211.516 474.75 204.953C473.812 201.016 472.172 198.016 469.828 195.953C467.484 193.797 464.578 191.875 461.109 190.188C467.859 187.094 472.688 181.281 475.594 172.75C478.688 163.75 483.844 157.234 491.062 153.203C498.844 148.984 507.422 146.781 516.797 146.594C526.172 146.312 533.109 145.984 537.609 145.609C542.109 145.234 546.094 144.625 549.562 143.781C556.031 142.281 561.094 139.516 564.75 135.484V114.391C564.75 105.109 562.828 98.3125 558.984 94C555.234 89.6875 549.469 87.5312 541.688 87.5312C534 87.5312 528.281 88.9844 524.531 91.8906C520.875 94.7031 519.047 98.5 519.047 103.281C519.047 110.594 522.797 114.156 530.297 113.969C528.797 121.281 524.859 124.938 518.484 124.938C516.609 124.938 514.781 124.609 513 123.953V124.375C513 126.812 514.125 128.359 516.375 129.016C514.031 132.578 510.094 134.312 504.562 134.219C499.031 134.125 494.719 131.172 491.625 125.359C490.219 125.734 488.578 125.922 486.703 125.922C484.922 125.922 482.906 125.312 480.656 124.094C478.5 122.875 476.766 121.188 475.453 119.031C480.141 116.219 483 111.859 484.031 105.953C485.156 98.7344 490.922 91.4219 501.328 84.0156C513.891 75.1094 529.922 70.6562 549.422 70.6562C581.766 70.6562 601.5 80.5938 608.625 100.469C610.969 107.125 612.141 115 612.141 124.094V135.484C612.141 140.078 613.266 143.828 615.516 146.734C617.859 149.641 621.797 152.031 627.328 153.906C621.422 156.625 617.625 159.062 615.938 161.219C613.406 164.5 612.141 168.25 612.141 172.469V214.656C614.859 221.688 618.75 225.203 623.812 225.203C627 225.203 629.625 224.406 631.688 222.812C633 224.594 633.656 226.844 633.656 229.562C633.656 232.188 632.297 234.719 629.578 237.156C626.953 239.594 622.969 240.812 617.625 240.812C612.281 240.812 607.312 239.312 602.719 236.312C598.688 239.312 595.078 240.812 591.891 240.812C588.797 240.812 586.078 240.484 583.734 239.828C581.484 239.266 579.375 238.328 577.406 237.016C573 234.109 570.281 229.984 569.25 224.641ZM578.109 200.734C583.547 198.578 586.406 188.219 586.688 169.656C586.688 165.719 586.688 161.219 586.688 156.156C586.688 151.094 586.641 146.781 586.547 143.219C586.547 139.562 586.5 136.094 586.406 132.812C586.031 121 584.953 113.969 583.172 111.719C581.391 109.375 579.703 107.828 578.109 107.078V200.734ZM526.219 190.75C526.219 194.688 526.641 198.531 527.484 202.281C528.328 206.031 529.594 209.312 531.281 212.125C535.031 218.031 540.328 220.984 547.172 220.984C552.328 220.984 556.594 218.875 559.969 214.656C563.156 210.531 564.75 205.234 564.75 198.766V152.922C558.75 156.391 551.062 158.781 541.688 160.094C531.375 161.688 526.219 171.906 526.219 190.75ZM505.125 222.391C506.062 221.734 506.531 220.891 506.531 219.859C506.531 218.453 505.875 216.484 504.562 213.953C499.875 205.328 497.531 198.25 497.531 192.719C497.531 187.188 497.719 183.203 498.094 180.766C498.562 178.328 499.125 176.266 499.781 174.578C500.531 172.797 501.328 171.25 502.172 169.938C503.109 168.625 503.906 167.453 504.562 166.422C505.781 164.266 506.391 162.812 506.391 162.062C506.391 161.219 505.969 160.516 505.125 159.953C501.281 161.734 498.469 163.844 496.688 166.281C493.5 170.594 491.156 176.172 489.656 183.016C489.281 184.984 486 187.375 479.812 190.188C485.812 192.906 489.094 195.297 489.656 197.359C492.844 208.516 498 216.859 505.125 222.391ZM749.391 236.312C745.078 239.312 740.156 240.812 734.625 240.812C729.094 240.812 725.062 239.547 722.531 237.016C720.094 234.391 718.875 231.906 718.875 229.562C718.875 226.469 719.391 224.219 720.422 222.812C722.484 224.406 725.109 225.203 728.297 225.203C734.297 225.203 738.188 222.297 739.969 216.484V173.875C739.969 169.562 739.125 166.375 737.438 164.312C734.438 160.656 729.562 157.188 722.812 153.906C734.25 148.656 739.969 140.594 739.969 129.719V114.953C739.969 106.984 737.25 102.672 731.812 102.016C730.219 101.828 728.203 101.734 725.766 101.734C723.328 101.734 721.078 102.531 719.016 104.125C717.703 102.344 717.047 100.516 717.047 98.6406C717.047 96.6719 717.516 94.5156 718.453 92.1719C719.484 89.7344 721.031 87.4375 723.094 85.2812C727.969 80.2188 733.641 77.6875 740.109 77.6875C746.672 77.6875 752.109 78.7187 756.422 80.7812C761.578 74.9688 767.109 72.0625 773.016 72.0625C782.203 72.0625 786.797 77.125 786.797 87.25V106.516C796.172 83.4531 811.078 71.9219 831.516 71.9219C840.703 71.9219 848.156 74.7344 853.875 80.3594C859.781 86.0781 862.734 94 862.734 104.125V106.094C862.734 106.75 862.641 108.109 862.453 110.172C862.266 112.141 862.312 114.156 862.594 116.219C862.969 118.281 863.531 119.969 864.281 121.281C865.312 123.25 867.234 124.797 870.047 125.922C869.391 128.453 867.844 130.75 865.406 132.812C863.062 134.781 860.438 135.766 857.531 135.766H854.859C851.203 140.359 846.094 143.594 839.531 145.469C837.656 146.031 835.594 146.312 833.344 146.312C831.188 146.312 829.266 145.844 827.578 144.906C825.984 143.875 825.094 142.797 824.906 141.672C826.688 140.828 827.578 139.141 827.578 136.609V135.906C826.828 136.094 826.172 136.188 825.609 136.188H824.203C821.109 136.188 818.297 135.016 815.766 132.672C813.328 130.328 811.734 127.375 810.984 123.812C816.047 124 820.453 122.125 824.203 118.188C827.578 114.719 829.266 111.156 829.266 107.5C829.266 98.875 825.516 94.5625 818.016 94.5625C811.547 94.5625 805.031 99.7188 798.469 110.031C792.281 119.5 788.391 129.297 786.797 139.422V215.5C787.828 218.781 789.422 221.219 791.578 222.812C793.734 224.406 796.688 225.203 800.438 225.203C804.188 225.203 807.094 224.406 809.156 222.812C810.188 224.219 810.703 226.281 810.703 229C810.703 231.719 809.438 234.391 806.906 237.016C804.469 239.547 800.297 240.812 794.391 240.812C788.578 240.812 783 239.219 777.656 236.031C773.906 239.219 769.359 240.812 764.016 240.812C758.672 240.812 753.797 239.312 749.391 236.312ZM761.484 169.656C761.578 166.469 761.625 163.797 761.625 161.641C761.719 159.484 761.766 157.75 761.766 156.438V152.641C761.766 151.234 761.719 149.453 761.625 147.297C761.625 145.047 761.578 142.562 761.484 139.844C761.484 137.031 761.438 134.312 761.344 131.688C760.781 121.938 759.703 115.703 758.109 112.984C756.609 110.172 755.062 108.25 753.469 107.219V116.359C753.469 132.109 753.094 141.391 752.344 144.203C751.688 146.922 750.562 148.984 748.969 150.391C747.469 151.703 745.219 152.875 742.219 153.906C747.844 155.875 751.031 158.266 751.781 161.078C752.906 165.578 753.469 175.703 753.469 191.453V200.594C757.781 197.781 760.219 192.062 760.781 183.438C761.25 177.344 761.484 172.75 761.484 169.656ZM1115.3 93.0156C1113.23 91.7031 1109.95 91.0469 1105.45 91.0469C1096.45 91.0469 1089.66 97.1406 1085.06 109.328L1080.7 121.562C1077.52 130.469 1075.88 136.562 1075.78 139.844C1075.78 143.125 1076.34 145.797 1077.47 147.859C1078.69 149.828 1081.36 151.891 1085.48 154.047C1075.36 156.859 1068.47 161.594 1064.81 168.25C1063.69 170.312 1062.7 172.469 1061.86 174.719L1038.52 238.141C1029.42 264.297 1020.98 282.016 1013.2 291.297C1006.08 299.828 997.172 304.094 986.484 304.094C978.328 304.094 970.641 301.469 963.422 296.219C955.172 290.312 951.047 283.375 951.047 275.406C951.047 270.438 952.359 266.641 954.984 264.016C957.609 261.484 960 260.219 962.156 260.219C964.406 260.219 965.953 260.219 966.797 260.219C967.641 260.312 968.484 260.5 969.328 260.781C971.016 261.531 972.609 263.219 974.109 265.844C972.141 269.594 973.406 273.719 977.906 278.219C982.125 282.625 986.062 284.828 989.719 284.828C993.469 284.828 996.562 284.125 999 282.719C1001.53 281.312 1003.78 279.156 1005.75 276.25C1010.06 269.875 1012.22 260.734 1012.22 248.828C1012.22 242.359 1010.48 235.234 1007.02 227.453C1006.08 224.828 1004.95 222.062 1003.64 219.156L983.672 174.156C981.516 169.375 978.234 165.156 973.828 161.5C969.516 157.75 964.641 155.266 959.203 154.047C965.672 150.766 968.906 146.453 968.906 141.109C968.906 137.266 967.359 131.594 964.266 124.094L955.969 104.125C953.531 98.6875 951.516 95.2656 949.922 93.8594C947.109 91.6094 943.828 90.4844 940.078 90.4844C936.422 90.4844 933.562 91.2812 931.5 92.875C930.375 91.75 929.812 90.1094 929.812 87.9531C929.719 85.7969 929.953 84.0156 930.516 82.6094C931.078 81.1094 932.016 79.7969 933.328 78.6719C936.141 76.1406 940.172 74.875 945.422 74.875C950.766 74.875 955.781 76.5625 960.469 79.9375C964.312 76.5625 969 74.875 974.531 74.875C980.062 74.875 984.938 76.4219 989.156 79.5156C993.375 76.4219 998.109 74.875 1003.36 74.875C1008.61 74.875 1012.73 76.1406 1015.73 78.6719C1018.83 81.1094 1020.42 83.5469 1020.52 85.9844C1020.61 89.6406 1020 92.125 1018.69 93.4375C1016.44 91.75 1014.09 90.9062 1011.66 90.9062C1009.22 90.9062 1007.2 91.6094 1005.61 93.0156C1004.11 94.4219 1003.45 96.7188 1003.64 99.9062L1036.12 187.656L1066.92 97.5156C1065.89 92.7344 1062.47 90.3438 1056.66 90.3438C1053 90.3438 1049.53 91.2344 1046.25 93.0156C1045.31 91.2344 1044.84 88.9375 1044.84 86.125C1044.94 83.3125 1046.25 80.7344 1048.78 78.3906C1051.41 76.0469 1054.92 74.875 1059.33 74.875C1063.83 74.875 1067.67 76.375 1070.86 79.375C1074.23 76.375 1078.03 74.875 1082.25 74.875C1086.47 74.875 1090.31 76.1875 1093.78 78.8125C1096.97 76.1875 1100.48 74.875 1104.33 74.875C1108.27 74.875 1111.36 76 1113.61 78.25C1115.95 80.5 1117.08 82.8438 1116.98 85.2812C1116.8 89.0312 1116.23 91.6094 1115.3 93.0156ZM979.875 107.078C977.719 108.484 976.641 110.266 976.641 112.422C976.734 114.578 976.828 116.266 976.922 117.484C977.109 118.609 977.391 119.969 977.766 121.562C978.609 124.562 980.297 129.016 982.828 134.922C985.453 140.734 986.812 144.391 986.906 145.891C987.094 147.297 986.625 148.891 985.5 150.672C984.375 152.359 983.016 153.484 981.422 154.047C987.422 155.172 991.125 157.281 992.531 160.375C993.188 161.688 994.125 163.75 995.344 166.562L1004.91 187.938C1006.78 192.25 1008.75 196.516 1010.81 200.734C1014.66 196.047 1012.97 185.266 1005.75 168.391L979.875 107.078Z" fill="#FF5151"/>
</svg>
